<svg width="226" height="207" viewBox="0 0 226 207" fill="none" xmlns="http://www.w3.org/2000/svg">
<rect width="226" height="207" fill="#EEEEEE"/>
<path fill-rule="evenodd" clip-rule="evenodd" d="M113.149 83H112.851C108.499 83 105.03 82.9999 102.309 83.3656C99.5007 83.7433 97.1931 84.5435 95.3683 86.3683C93.5435 88.1931 92.7433 90.5007 92.3656 93.3094C91.9999 96.0297 92 99.4991 92 103.851V104.149C92 108.501 91.9999 111.97 92.3656 114.691C92.7433 117.499 93.5435 119.807 95.3683 121.632C97.1931 123.457 99.5007 124.257 102.309 124.634C105.03 125 108.499 125 112.851 125H113.149C117.501 125 120.97 125 123.691 124.634C126.499 124.257 128.807 123.457 130.632 121.632C132.457 119.807 133.257 117.499 133.634 114.691C134 111.97 134 108.501 134 104.149V103.851C134 99.4992 134 96.0297 133.634 93.3094C133.257 90.5007 132.457 88.1931 130.632 86.3683C128.807 84.5435 126.499 83.7433 123.691 83.3656C120.97 82.9999 117.501 83 113.149 83ZM100 95C100 92.7909 101.791 91 104 91C106.209 91 108 92.7909 108 95C108 97.2091 106.209 99 104 99C101.791 99 100 97.2091 100 95ZM102.844 120.67C102.6 120.637 102.367 120.602 102.145 120.563C105.954 115.955 109.837 111.3 114.198 108.376C116.718 106.686 119.31 105.642 122.048 105.514C124.449 105.401 127.078 105.985 129.992 107.625C129.972 110.327 129.902 112.438 129.671 114.158C129.353 116.523 128.762 117.846 127.805 118.803C126.847 119.761 125.524 120.352 123.159 120.67C120.736 120.996 117.536 121 113.001 121C108.466 121 105.266 120.996 102.844 120.67Z" fill="#999999"/>
</svg>
