<svg width="42" height="12" viewBox="0 0 42 12" fill="none" xmlns="http://www.w3.org/2000/svg">
<path fill-rule="evenodd" clip-rule="evenodd" d="M0 6C0 9.31371 2.68629 12 6 12C9.31371 12 12 9.31371 12 6C12 2.68629 9.31371 -3.27826e-07 6 -3.27826e-07C2.68629 -3.27826e-07 0 2.68629 0 6Z" fill="#E9E9E9"/>
<path fill-rule="evenodd" clip-rule="evenodd" d="M15 6C15 9.31371 17.6863 12 21 12C24.3137 12 27 9.31371 27 6C27 2.68629 24.3137 -3.27826e-07 21 -3.27826e-07C17.6863 -3.27826e-07 15 2.68629 15 6Z" fill="#E9E9E9"/>
<path fill-rule="evenodd" clip-rule="evenodd" d="M30 6C30 9.31371 32.6863 12 36 12C39.3137 12 42 9.31371 42 6C42 2.68629 39.3137 -3.27826e-07 36 -3.27826e-07C32.6863 -3.27826e-07 30 2.68629 30 6Z" fill="#E9E9E9"/>
</svg>
