<svg width="122" height="88" viewBox="0 0 122 88" fill="none" xmlns="http://www.w3.org/2000/svg">
<path d="M0 36C0 33.2386 2.23858 31 5 31H33C35.7614 31 38 33.2386 38 36V52C38 54.7614 35.7614 57 33 57H5C2.23858 57 0 54.7614 0 52V36Z" fill="white" fill-opacity="0.15"/>
<path d="M84 36C84 33.2386 86.2386 31 89 31H117C119.761 31 122 33.2386 122 36V52C122 54.7614 119.761 57 117 57H89C86.2386 57 84 54.7614 84 52V36Z" fill="white" fill-opacity="0.15"/>
<path d="M0 5C0 2.23858 2.23858 0 5 0H33C35.7614 0 38 2.23858 38 5V21C38 23.7614 35.7614 26 33 26H5C2.23858 26 0 23.7614 0 21V5Z" fill="url(#paint0_linear_1964_3)"/>
<path d="M122 5C122 2.23858 119.761 0 117 0H89C86.2386 0 84 2.23858 84 5V21C84 23.7614 86.2386 26 89 26H117C119.761 26 122 23.7614 122 21V5Z" fill="url(#paint1_linear_1964_3)"/>
<path d="M122 83C122 85.7614 119.761 88 117 88H89C86.2386 88 84 85.7614 84 83V67C84 64.2386 86.2386 62 89 62H117C119.761 62 122 64.2386 122 67V83Z" fill="url(#paint2_linear_1964_3)"/>
<path d="M0 83C0 85.7614 2.23858 88 5 88H33C35.7614 88 38 85.7614 38 83V67C38 64.2386 35.7614 62 33 62H5C2.23858 62 0 64.2386 0 67V83Z" fill="url(#paint3_linear_1964_3)"/>
<path d="M42 67C42 64.2386 44.2386 62 47 62H75C77.7614 62 80 64.2386 80 67V83C80 85.7614 77.7614 88 75 88H47C44.2386 88 42 85.7614 42 83V67Z" fill="white" fill-opacity="0.15"/>
<path d="M42 5C42 2.23858 44.2386 0 47 0H75C77.7614 0 80 2.23858 80 5V21C80 23.7614 77.7614 26 75 26H47C44.2386 26 42 23.7614 42 21V5Z" fill="white" fill-opacity="0.15"/>
<rect x="42" y="31" width="38" height="26" rx="5" fill="white"/>
<g clip-path="url(#clip0_1964_3)">
<path d="M62.7392 53.1805L59.2676 49.7953L66.7233 42.1816L70.3176 45.7044L62.7392 53.1805Z" fill="#8AB4F8"/>
<path d="M62.754 38.2135L59.2949 34.6816L51.7312 42.1737C50.7563 43.1487 50.7563 44.7294 51.7312 45.7055L59.1812 53.2044L62.704 49.9089L57.0278 43.9396L62.754 38.2135Z" fill="#4285F4"/>
<path d="M70.2676 42.2321L62.7676 34.7321C61.7914 33.756 60.2085 33.756 59.2323 34.7321C58.2562 35.7082 58.2562 37.2912 59.2323 38.2673L66.7323 45.7673C67.7085 46.7435 69.2914 46.7435 70.2676 45.7673C71.2437 44.7912 71.2437 43.2082 70.2676 42.2321Z" fill="#8AB4F8"/>
<path d="M60.9427 54.0006C62.292 54.0006 63.3859 52.9068 63.3859 51.5574C63.3859 50.2081 62.292 49.1143 60.9427 49.1143C59.5934 49.1143 58.4995 50.2081 58.4995 51.5574C58.4995 52.9068 59.5934 54.0006 60.9427 54.0006Z" fill="#246FDB"/>
</g>
<defs>
<linearGradient id="paint0_linear_1964_3" x1="-4.22222" y1="7.56884e-07" x2="39.1942" y2="28.6693" gradientUnits="userSpaceOnUse">
<stop stop-color="white" stop-opacity="0"/>
<stop offset="1" stop-color="white" stop-opacity="0.05"/>
</linearGradient>
<linearGradient id="paint1_linear_1964_3" x1="126.222" y1="7.56884e-07" x2="82.8058" y2="28.6693" gradientUnits="userSpaceOnUse">
<stop stop-color="white" stop-opacity="0"/>
<stop offset="1" stop-color="white" stop-opacity="0.05"/>
</linearGradient>
<linearGradient id="paint2_linear_1964_3" x1="126.222" y1="88" x2="82.8058" y2="59.3307" gradientUnits="userSpaceOnUse">
<stop stop-color="white" stop-opacity="0"/>
<stop offset="1" stop-color="white" stop-opacity="0.05"/>
</linearGradient>
<linearGradient id="paint3_linear_1964_3" x1="-4.22222" y1="88" x2="39.1942" y2="59.3307" gradientUnits="userSpaceOnUse">
<stop stop-color="white" stop-opacity="0"/>
<stop offset="1" stop-color="white" stop-opacity="0.05"/>
</linearGradient>
<clipPath id="clip0_1964_3">
<rect width="20" height="20" fill="white" transform="translate(51 34)"/>
</clipPath>
</defs>
</svg>
