<svg width="18" height="18" viewBox="0 0 18 18" fill="none" xmlns="http://www.w3.org/2000/svg">
<path d="M16.5 8.99998C16.5 6.23315 16.5 4.84973 15.8896 3.86908C15.6638 3.50627 15.3833 3.1907 15.0608 2.93665C14.1891 2.25 12.9594 2.25 10.5 2.25H7.5C5.0406 2.25 3.8109 2.25 2.93917 2.93665C2.61667 3.1907 2.33618 3.50627 2.11035 3.86908C1.5 4.84973 1.5 6.23315 1.5 8.99998C1.5 11.7669 1.5 13.1503 2.11035 14.131C2.33618 14.4937 2.61667 14.8093 2.93917 15.0634C3.8109 15.75 5.0406 15.75 7.5 15.75H10.5C12.9594 15.75 14.1891 15.75 15.0608 15.0634C15.3833 14.8093 15.6638 14.4937 15.8896 14.131C16.5 13.1503 16.5 11.7669 16.5 8.99998Z" fill="#999999" stroke="#999999" stroke-width="1.5"/>
<path d="M7.36 3H10.24C12.601 3 13.7816 3 14.6184 3.61036C14.928 3.83618 15.1973 4.11668 15.414 4.43918C16 5.31087 16 6.54059 16 8.99999C16 11.4595 16 12.6891 15.414 13.5609C15.1973 13.8833 14.928 14.1639 14.6184 14.3897C13.7816 15 12.601 15 10.24 15H7.36L7 14.9999V3.00009L7.36 3Z" fill="#202020"/>
<path d="M7.125 2.25V15.75" stroke="#999999" stroke-width="1.5" stroke-linejoin="round"/>
</svg>
